<?xml version="1.0" encoding="UTF-8" standalone="no"?>
<!-- Created with Inkscape (http://www.inkscape.org/) -->

<svg
   width="43.847935mm"
   height="36.218704mm"
   viewBox="-1 -1 45.848 37.870772"
   version="1.1"
   id="svg1"
   inkscape:version="1.3 (0e150ed6c4, 2023-07-21)"
   sodipodi:docname="moonbase.svg"
   xmlns:inkscape="http://www.inkscape.org/namespaces/inkscape"
   xmlns:sodipodi="http://sodipodi.sourceforge.net/DTD/sodipodi-0.dtd"
   xmlns="http://www.w3.org/2000/svg"
   xmlns:svg="http://www.w3.org/2000/svg">
  <sodipodi:namedview
     id="namedview1"
     pagecolor="#ffffff"
     bordercolor="#000000"
     borderopacity="0.25"
     inkscape:showpageshadow="2"
     inkscape:pageopacity="0.0"
     inkscape:pagecheckerboard="0"
     inkscape:deskcolor="#d1d1d1"
     inkscape:document-units="mm"
     inkscape:zoom="0.69219276"
     inkscape:cx="267.26659"
     inkscape:cy="372.0062"
     inkscape:window-width="1920"
     inkscape:window-height="991"
     inkscape:window-x="-9"
     inkscape:window-y="1347"
     inkscape:window-maximized="1"
     inkscape:current-layer="layer1" />
  <defs
     id="defs1" />
  <g
     inkscape:label="Layer 1"
     inkscape:groupmode="layer"
     id="layer1"
     transform="translate(-34.395833,-50.006248)">
    <path
       id="path7"
       style="fill:#5a2ca0;stroke-width:0.35929"
       d="m 44.106413,50.006248 c -0.284076,0 -9.08609,5.070837 -9.424894,5.429679 l -0.26142,0.277025 v 5.348357 c 0,6.411999 -0.583142,5.255887 3.967919,7.86566 2.026516,1.162088 3.802226,2.236345 3.946005,2.387143 l 0.261426,0.274232 v 4.50338 c 0,4.152509 0.01302,4.518287 0.166361,4.695176 0.13513,0.155834 6.21284,3.723793 8.674417,5.09233 0.880702,0.48963 0.708573,0.5552 4.879192,-1.857426 2.094659,-1.211724 3.906354,-2.222026 4.026026,-2.244916 0.156375,-0.02993 1.309694,0.589881 4.099747,2.203138 2.402849,1.389383 3.978233,2.244925 4.134276,2.244925 0.285367,0 9.230786,-5.116216 9.501948,-5.434526 0.154181,-0.180984 0.166352,-0.590403 0.166352,-5.598083 V 69.78977 L 78.02988,69.555634 c -0.117637,-0.128697 -1.860846,-1.18226 -3.873783,-2.341279 -2.012936,-1.159 -3.745446,-2.190861 -3.85002,-2.293002 -0.183587,-0.179331 -0.191749,-0.343764 -0.237641,-4.79024 -0.04057,-3.926696 -0.06851,-4.624675 -0.190134,-4.740109 -0.132004,-0.125305 -8.29813,-4.867353 -9.020328,-5.238072 -0.4866,-0.249785 -0.534535,-0.227665 -4.621104,2.132018 -2.968443,1.714068 -3.856224,2.18574 -4.047755,2.150414 -0.13494,-0.02489 -1.960108,-1.0315 -4.055917,-2.237115 -2.095818,-1.205614 -3.907931,-2.192001 -4.026785,-2.192001 z m -0.08504,3.553127 c 0.199655,-0.03858 2.813275,1.374047 4.839077,2.615511 0.268436,0.164509 -0.01169,0.374216 -2.208525,1.653382 -1.663899,0.968818 -2.320053,1.303527 -2.553685,1.302092 -0.383052,-0.0019 -4.763446,-2.521921 -4.809919,-2.766822 -0.03152,-0.166029 4.270482,-2.714783 4.733052,-2.804163 z m 16.398239,0.0247 c 0.325303,2.8e-5 6.032102,3.229155 6.392931,3.617376 0.267362,0.287676 0.344694,5.593836 0.08295,5.694267 -0.07202,0.02765 -1.387416,-0.673285 -2.92316,-1.557569 -3.444373,-1.983273 -3.380685,-1.950626 -3.68478,-1.88955 -0.136536,0.02746 -0.740175,0.336276 -1.341448,0.686235 -0.601263,0.34994 -4.109068,2.378592 -7.795102,4.508036 -6.941983,4.010414 -6.954344,4.016904 -7.296588,3.890296 -0.501355,-0.185459 -5.895543,-3.366537 -6.132437,-3.616445 l -0.262904,-0.277205 0.02525,-2.681233 c 0.03097,-3.288739 -0.369182,-3.1656 3.340173,-1.02712 2.141923,1.234841 3.064641,1.718182 3.280201,1.718182 0.222392,0 2.333593,-1.17179 8.164947,-4.53254 5.596735,-3.225535 7.946974,-4.53274 8.149916,-4.53273 z m 0,9.41042 c 0.239039,0.0019 4.290832,2.224298 4.771313,2.618115 0.226353,0.185526 -0.02299,0.368154 -2.236193,1.638151 -2.776391,1.593246 -2.304395,1.589037 -5.008403,0.04475 -2.47927,-1.41593 -2.525276,-1.448444 -2.324025,-1.645021 0.355441,-0.347184 4.527713,-2.657061 4.797308,-2.655978 z m -8.166999,4.693324 c 0.219731,0 4.12657,2.145255 4.749031,2.60772 0.279838,0.207902 0.108953,0.335422 -2.353166,1.755675 -2.586712,1.492122 -2.20994,1.471552 -4.357637,0.236729 -0.964638,-0.55463 -1.975054,-1.134182 -2.245295,-1.287992 -0.561234,-0.319421 -0.714179,-0.471131 -0.620314,-0.615668 0.142418,-0.219303 4.577226,-2.696464 4.827381,-2.696464 z m 16.32007,0 c 0.308275,0 6.10457,3.310982 6.415211,3.664542 0.266517,0.303344 0.342728,5.426183 0.0839,5.640973 -0.101932,0.08466 -0.783578,-0.271543 -3.160811,-1.651148 -2.205047,-1.279679 -3.113778,-1.759048 -3.335353,-1.75977 -0.229784,-6.75e-4 -2.24177,1.119569 -8.194658,4.562251 -7.978006,4.613825 -8.100575,4.676307 -8.612049,4.402569 -1.513254,-0.809906 -5.750792,-3.322611 -5.917609,-3.508945 -0.27542,-0.30762 -0.343641,-5.603063 -0.07354,-5.706705 0.08133,-0.03117 1.419303,0.689238 3.183472,1.714096 1.868077,1.085212 3.140753,1.768112 3.295608,1.768112 0.159682,0 3.153761,-1.674655 8.157898,-4.562992 5.008573,-2.890893 7.99793,-4.562983 8.157897,-4.562983 z m 0.0029,9.411533 c 0.221138,-3.52e-4 4.221053,2.203346 4.705752,2.59267 0.264674,0.212576 -0.01159,0.424345 -2.214273,1.697012 -1.332412,0.769858 -2.380359,1.316288 -2.519147,1.313418 -0.354348,-0.0067 -4.800634,-2.610285 -4.800634,-2.810652 0,-0.216653 4.452357,-2.791726 4.828302,-2.792448 z" />
  </g>
</svg>
