<?xml version="1.0" encoding="UTF-8" standalone="no"?>
<!-- Created with Inkscape (http://www.inkscape.org/) -->

<svg
   width="340.6366mm"
   height="38.118999mm"
   viewBox="-10 -1 358.50888 40.119"
   version="1.1"
   id="svg1"
   inkscape:version="1.3 (0e150ed6c4, 2023-07-21)"
   sodipodi:docname="moonbase_logo_1.svg"
   xmlns:inkscape="http://www.inkscape.org/namespaces/inkscape"
   xmlns:sodipodi="http://sodipodi.sourceforge.net/DTD/sodipodi-0.dtd"
   xmlns="http://www.w3.org/2000/svg"
   xmlns:svg="http://www.w3.org/2000/svg">
  <sodipodi:namedview
     id="namedview1"
     pagecolor="#ffffff"
     bordercolor="#000000"
     borderopacity="0.25"
     inkscape:showpageshadow="2"
     inkscape:pageopacity="0.0"
     inkscape:pagecheckerboard="0"
     inkscape:deskcolor="#d1d1d1"
     inkscape:document-units="mm"
     inkscape:zoom="0.69219276"
     inkscape:cx="422.57015"
     inkscape:cy="107.62898"
     inkscape:window-width="1920"
     inkscape:window-height="991"
     inkscape:window-x="-9"
     inkscape:window-y="1347"
     inkscape:window-maximized="1"
     inkscape:current-layer="layer1" />
  <defs
     id="defs1">
    <rect
       x="556.20343"
       y="426.18185"
       width="1813.0789"
       height="234.03885"
       id="rect1" />
  </defs>
  <g
     inkscape:label="Layer 1"
     inkscape:groupmode="layer"
     id="layer1"
     transform="translate(-91.584813,-120.06857)">
    <path
       id="path7"
       style="fill:#5a2ca0;stroke-width:0.378141"
       d="m 101.80488,120.06857 c -0.29898,0 -9.562812,5.33689 -9.919392,5.71456 l -0.275136,0.29156 v 5.62897 c 0,6.74842 -0.613738,5.53165 4.176105,8.27835 2.132841,1.22306 4.001718,2.35368 4.153041,2.51239 l 0.275142,0.28862 v 4.73966 c 0,4.37038 0.0137,4.75535 0.17509,4.94152 0.14222,0.16401 6.53881,3.91917 9.12954,5.35951 0.92691,0.51532 0.74575,0.58433 5.13519,-1.95488 2.20456,-1.2753 4.11131,-2.33861 4.23726,-2.3627 0.16458,-0.0315 1.37841,0.62083 4.31485,2.31873 2.52892,1.46228 4.18696,2.36271 4.35119,2.36271 0.30034,0 9.7151,-5.38465 10.00049,-5.71966 0.16227,-0.19048 0.17508,-0.62138 0.17508,-5.8918 v -5.68603 l -0.22511,-0.24642 c -0.12381,-0.13545 -1.95848,-1.24429 -4.07703,-2.46412 -2.11855,-1.21981 -3.94196,-2.30581 -4.05202,-2.41331 -0.19322,-0.18874 -0.20181,-0.3618 -0.25011,-5.04157 -0.0427,-4.13272 -0.0721,-4.86732 -0.20011,-4.98881 -0.13893,-0.13188 -8.73351,-5.12273 -9.4936,-5.5129 -0.51213,-0.26289 -0.56258,-0.23961 -4.86356,2.24388 -3.12419,1.804 -4.05855,2.30042 -4.26013,2.26324 -0.14202,-0.0262 -2.06295,-1.08562 -4.26872,-2.35449 -2.20578,-1.26887 -4.11297,-2.30701 -4.23806,-2.30701 z m -0.0895,3.73955 c 0.21013,-0.0406 2.96088,1.44614 5.09297,2.75274 0.28252,0.17314 -0.0123,0.39385 -2.3244,1.74013 -1.7512,1.01965 -2.44178,1.37192 -2.68767,1.37041 -0.40315,-0.002 -5.013371,-2.65424 -5.062283,-2.91199 -0.03317,-0.17474 4.494543,-2.85722 4.981383,-2.95129 z m 17.25861,0.026 c 0.34237,3e-5 6.34859,3.39858 6.72835,3.80717 0.28139,0.30277 0.36278,5.88733 0.0873,5.99303 -0.0758,0.0291 -1.46021,-0.70861 -3.07653,-1.63929 -3.62509,-2.08733 -3.55806,-2.05297 -3.87811,-1.98869 -0.1437,0.0289 -0.77901,0.35392 -1.41183,0.72224 -0.63281,0.3683 -4.32466,2.50339 -8.20409,4.74456 -7.30621,4.22083 -7.31922,4.22766 -7.67942,4.09441 -0.52766,-0.19519 -6.204866,-3.54317 -6.45419,-3.80619 l -0.276697,-0.29175 0.02657,-2.82191 c 0.03259,-3.46129 -0.388552,-3.33169 3.515423,-1.08101 2.254304,1.29963 3.225434,1.80833 3.452304,1.80833 0.23406,0 2.45603,-1.23327 8.59334,-4.77035 5.89038,-3.39477 8.36393,-4.77056 8.57752,-4.77055 z m 0,9.90416 c 0.25158,0.002 4.51596,2.341 5.02165,2.75548 0.23823,0.19526 -0.0242,0.38747 -2.35352,1.7241 -2.92206,1.67684 -2.4253,1.67241 -5.27118,0.0471 -2.60935,-1.49022 -2.65777,-1.52444 -2.44596,-1.73133 0.37409,-0.3654 4.76527,-2.79647 5.04901,-2.79533 z m -8.5955,4.93957 c 0.23126,0 4.34308,2.25781 4.9982,2.74454 0.29452,0.21881 0.11467,0.35302 -2.47663,1.84779 -2.72243,1.57041 -2.32589,1.54876 -4.58627,0.24915 -1.01525,-0.58373 -2.07868,-1.19369 -2.3631,-1.35557 -0.59068,-0.33618 -0.75165,-0.49585 -0.65286,-0.64797 0.14989,-0.23081 4.81738,-2.83794 5.08066,-2.83794 z m 17.17634,0 c 0.32445,0 6.42486,3.4847 6.7518,3.85681 0.2805,0.31926 0.36071,5.71088 0.0883,5.93694 -0.10728,0.0891 -0.82469,-0.28579 -3.32665,-1.73778 -2.32074,-1.34682 -3.27715,-1.85134 -3.51035,-1.8521 -0.24184,-7.1e-4 -2.35939,1.17831 -8.62461,4.80162 -8.39659,4.8559 -8.52559,4.92166 -9.0639,4.63356 -1.59265,-0.8524 -6.05252,-3.49694 -6.22809,-3.69305 -0.28987,-0.32376 -0.36167,-5.89704 -0.0774,-6.00612 0.0856,-0.0328 1.49377,0.7254 3.3505,1.80403 1.96609,1.14215 3.30554,1.86088 3.46852,1.86088 0.16806,0 3.31923,-1.76252 8.58592,-4.8024 5.27136,-3.04257 8.41756,-4.80239 8.58592,-4.80239 z m 0.003,9.90533 c 0.23274,-3.7e-4 4.44252,2.31895 4.95265,2.7287 0.27856,0.22373 -0.0122,0.44661 -2.33045,1.78605 -1.40232,0.81025 -2.50525,1.38535 -2.65132,1.38233 -0.37294,-0.007 -5.05251,-2.74724 -5.05251,-2.95812 0,-0.22802 4.68596,-2.9382 5.08163,-2.93896 z" />
    <text
       xml:space="preserve"
       transform="matrix(0.2701913,0,0,0.2701913,-6.1313258,-3.3383978)"
       id="text1"
       style="font-style:normal;font-variant:normal;font-weight:600;font-stretch:normal;font-size:192px;font-family:'Stick No Bills';-inkscape-font-specification:'Stick No Bills Semi-Bold';white-space:pre;shape-inside:url(#rect1);fill:#5a2ca0"><tspan
         x="556.20312"
         y="594.335"
         id="tspan2">MOONBASE.MX</tspan></text>
  </g>
</svg>
